<svg version="1.1" id="Layer_1" xmlns="http://www.w3.org/2000/svg" xmlns:xlink="http://www.w3.org/1999/xlink" x="0px" y="0px"
	 width="11.51px" height="21.272px" viewBox="0 0 11.51 21.272" enable-background="new 0 0 11.51 21.272" xml:space="preserve">
<path fill="#001489" d="M7.714,7.649h0.238c0.942,0,1.886,0,2.829,0c0.445,0,0.599,0.148,0.599,0.588c0,1.069,0,2.139-0.002,3.209
	c0,0.424-0.146,0.568-0.573,0.568c-0.955,0-1.91,0-2.865,0H7.705v0.254c0,2.791,0,5.582,0,8.375c0,0.486-0.144,0.629-0.637,0.629
	c-1.094,0-2.189,0-3.284,0c-0.418,0-0.574-0.154-0.574-0.574c-0.001-2.809,0-5.621,0-8.43c0-0.254-0.001-0.254-0.26-0.254
	c-0.798,0-1.595,0-2.392,0c-0.401-0.002-0.555-0.152-0.556-0.547C0,10.377,0,9.289,0.001,8.201c0-0.39,0.165-0.551,0.559-0.552
	c0.797-0.001,1.594,0,2.392,0h0.246c0.004-0.088,0.01-0.16,0.01-0.233C3.214,6.549,3.193,5.68,3.229,4.815
	c0.043-1.037,0.331-2.006,0.944-2.861c0.659-0.92,1.551-1.506,2.646-1.75c0.545-0.121,1.113-0.168,1.672-0.188
	c0.815-0.03,1.632-0.007,2.448-0.005c0.406,0,0.568,0.158,0.568,0.561c0.002,1,0.002,2,0,3c-0.001,0.401-0.15,0.551-0.549,0.555
	C10.27,4.131,9.58,4.12,8.891,4.155C8.641,4.167,8.378,4.25,8.156,4.368C7.819,4.545,7.729,4.9,7.721,5.247
	C7.702,6.036,7.714,6.827,7.714,7.649"/>
</svg>
