<svg version="1.1" id="Layer_1" xmlns="http://www.w3.org/2000/svg" xmlns:xlink="http://www.w3.org/1999/xlink" x="0px" y="0px"
	 width="20.421px" height="20.385px" viewBox="0 0 20.421 20.385" enable-background="new 0 0 20.421 20.385" xml:space="preserve">
<path fill="#001489" d="M20.374,10.159c0,1.186,0.012,2.375-0.005,3.563c-0.012,0.93-0.066,1.859-0.361,2.75
	c-0.702,2.121-2.195,3.344-4.37,3.713c-0.803,0.135-1.631,0.162-2.448,0.176c-1.755,0.027-3.51,0.031-5.265,0.014
	c-0.951-0.01-1.907-0.033-2.851-0.139c-1.651-0.186-3.024-0.91-3.987-2.307c-0.616-0.893-0.902-1.902-0.985-2.969
	c-0.061-0.787-0.089-1.578-0.095-2.367c-0.012-1.615-0.008-3.232,0.007-4.848c0.007-0.766,0.031-1.532,0.089-2.294
	C0.186,4.372,0.472,3.35,1.095,2.446c0.85-1.231,2.041-1.933,3.491-2.227c0.862-0.176,1.737-0.192,2.61-0.199
	c1.785-0.017,3.57-0.028,5.355-0.012c0.928,0.01,1.859,0.032,2.779,0.143c1.883,0.225,3.376,1.104,4.296,2.813
	c0.501,0.931,0.692,1.951,0.72,2.998c0.037,1.398,0.051,2.797,0.075,4.195C20.406,10.157,20.39,10.157,20.374,10.159 M10.207,1.829
	C8.731,1.866,7.255,1.893,5.779,1.942C5.124,1.964,4.485,2.104,3.896,2.405C2.874,2.924,2.297,3.782,2.06,4.887
	C1.874,5.754,1.884,6.638,1.87,7.516c-0.024,1.525-0.025,3.051-0.007,4.577c0.011,0.971,0.038,1.941,0.12,2.908
	c0.083,0.982,0.441,1.861,1.209,2.529c0.68,0.594,1.498,0.854,2.373,0.908c1.088,0.066,2.18,0.092,3.27,0.102
	c1.326,0.014,2.653,0.008,3.979-0.014c0.782-0.014,1.566-0.051,2.346-0.127c0.73-0.072,1.406-0.33,1.982-0.807
	c0.869-0.713,1.237-1.678,1.316-2.76c0.066-0.93,0.092-1.865,0.099-2.799c0.013-1.514,0.015-3.028-0.015-4.541
	c-0.016-0.824-0.051-1.654-0.167-2.468c-0.159-1.112-0.722-2-1.726-2.56c-0.621-0.346-1.307-0.5-2.013-0.524
	C13.162,1.893,11.686,1.866,10.207,1.829"/>
<path fill="#001489" d="M10.208,15.435c-2.859,0.004-5.211-2.332-5.252-5.137c-0.043-2.905,2.295-5.305,5.172-5.344
	c2.906-0.039,5.325,2.307,5.322,5.245C15.448,13.087,13.102,15.433,10.208,15.435 M13.591,10.21c0-1.883-1.508-3.407-3.375-3.411
	C8.34,6.795,6.807,8.327,6.809,10.204c0.003,1.85,1.528,3.379,3.374,3.379C12.072,13.583,13.591,12.081,13.591,10.21"/>
<path fill="#001489" d="M15.639,5.97c-0.682-0.004-1.217-0.54-1.216-1.218c0.001-0.685,0.549-1.23,1.231-1.228
	c0.689,0.004,1.225,0.544,1.222,1.234C16.873,5.449,16.338,5.974,15.639,5.97"/>
</svg>
