<svg version="1.1" id="Capa_1" xmlns="http://www.w3.org/2000/svg" xmlns:xlink="http://www.w3.org/1999/xlink" x="0px" y="0px"
	 width="17px" height="20px" viewBox="90.335 0 619.329 799.994" enable-background="new 90.335 0 619.329 799.994"
	 xml:space="preserve">
<g>
	<path fill="#001489" d="M418.748,0C200.417,0,90.335,156.524,90.335,287.059c0,79.032,29.92,149.333,94.086,175.543
		c10.533,4.3,19.969,0.155,23.032-11.492c2.113-8.067,7.134-28.404,9.37-36.882c3.08-11.524,1.876-15.563-6.609-25.604
		c-18.503-21.828-30.33-50.086-30.33-90.114c0-116.127,86.887-220.083,226.259-220.083c123.385,0,191.187,75.403,191.187,176.1
		c0,132.492-58.637,244.312-145.679,244.312c-48.08,0-84.053-39.758-72.521-88.517c13.81-58.211,40.552-121.042,40.552-163.052
		c0-37.612-20.174-68.99-61.963-68.99c-49.144,0-88.614,50.84-88.614,118.937c0,43.377,14.653,72.717,14.653,72.717
		s-50.299,213.081-59.096,250.397c-17.569,74.306-2.638,165.411-1.376,174.609c0.729,5.455,7.731,6.749,10.91,2.637
		c4.545-5.921,63.067-78.171,82.963-150.372c5.627-20.444,32.304-126.301,32.304-126.301c15.972,30.445,62.635,57.27,112.262,57.27
		c147.711,0,247.939-134.663,247.939-314.932C709.673,126.939,594.209,0,418.748,0z"/>
</g>
</svg>
