<svg xmlns="http://www.w3.org/2000/svg" xmlns:xlink="http://www.w3.org/1999/xlink" version="1.1" id="Layer_1" x="0px" y="0px" width="16.455px" height="16.841px" viewBox="0 0 16.455 16.841" enable-background="new 0 0 16.455 16.841" xml:space="preserve" src="/assets/images/search.svg" alt="">
<path fill="#fff" d="M6.563,0C2.934,0,0,2.934,0,6.563s2.934,6.563,6.563,6.563c1.295,0,2.495-0.381,3.512-1.025l4.74,4.741  l1.641-1.642l-4.68-4.668c0.841-1.104,1.351-2.472,1.351-3.969C13.126,2.934,10.191,0,6.563,0 M6.563,1.544  c2.78,0,5.02,2.239,5.02,5.019c0,2.779-2.239,5.018-5.02,5.018c-2.779,0-5.019-2.238-5.019-5.018  C1.544,3.783,3.783,1.544,6.563,1.544"></path>
</svg>