<svg version="1.1" id="Layer_1" xmlns="http://www.w3.org/2000/svg" xmlns:xlink="http://www.w3.org/1999/xlink" x="0px" y="0px"
	 width="26.001px" height="21.128px" viewBox="1.999 4.436 26.001 21.128" enable-background="new 1.999 4.436 26.001 21.128"
	 xml:space="preserve">
<path fill="#001489" d="M28,6.937c-0.957,0.425-1.984,0.711-3.064,0.84c1.103-0.66,1.947-1.705,2.346-2.951c-1.03,0.611-2.172,1.055-3.389,1.295
	C22.92,5.084,21.534,4.436,20,4.436c-2.945,0-5.334,2.389-5.334,5.334c0,0.418,0.048,0.826,0.138,1.215
	c-4.433-0.222-8.363-2.346-10.995-5.574C3.351,6.199,3.088,7.115,3.088,8.094c0,1.85,0.941,3.483,2.372,4.439
	c-0.874-0.028-1.697-0.268-2.416-0.667c0,0.023,0,0.044,0,0.067c0,2.585,1.838,4.741,4.279,5.23
	c-0.447,0.122-0.919,0.187-1.406,0.187c-0.343,0-0.678-0.033-1.003-0.095c0.679,2.119,2.649,3.662,4.983,3.705
	c-1.825,1.431-4.125,2.284-6.625,2.284c-0.43,0-0.855-0.025-1.273-0.075c2.361,1.513,5.164,2.396,8.177,2.396
	c9.812,0,15.175-8.127,15.175-15.177c0-0.23-0.004-0.461-0.015-0.689C26.38,8.945,27.285,8.006,28,6.937z"/>
</svg>
