<svg version="1.1" id="Layer_1" xmlns="http://www.w3.org/2000/svg" xmlns:xlink="http://www.w3.org/1999/xlink" x="0px" y="0px"
	 width="27.512px" height="20.135px" viewBox="0 0 27.512 20.135" enable-background="new 0 0 27.512 20.135" xml:space="preserve">
<path fill="#001489" d="M13.784,20.107c-1.188,0-2.376,0.02-3.563-0.006c-1.213-0.025-2.425-0.076-3.636-0.15
	c-1.048-0.063-2.093-0.186-3.114-0.445c-0.316-0.082-0.625-0.199-0.933-0.311c-0.496-0.178-0.862-0.523-1.181-0.93
	c-0.522-0.66-0.809-1.422-0.983-2.238c-0.151-0.711-0.234-1.434-0.276-2.158c-0.044-0.756-0.073-1.514-0.085-2.27
	c-0.015-0.965-0.017-1.928-0.006-2.891c0.013-1.152,0.047-2.304,0.18-3.449c0.087-0.749,0.214-1.49,0.486-2.198
	C0.931,2.387,1.322,1.8,1.863,1.323c0.355-0.313,0.795-0.472,1.241-0.606c0.77-0.231,1.561-0.359,2.358-0.44
	c0.766-0.079,1.535-0.137,2.305-0.171c1.111-0.05,2.223-0.089,3.336-0.097c2.024-0.014,4.049-0.011,6.073,0.008
	c1.033,0.01,2.066,0.052,3.098,0.119c0.891,0.058,1.779,0.153,2.665,0.264c0.659,0.083,1.308,0.238,1.933,0.476
	c0.523,0.199,0.937,0.534,1.279,0.972c0.516,0.653,0.813,1.403,0.982,2.21c0.283,1.348,0.338,2.716,0.358,4.087
	c0.017,1.073,0.027,2.146,0.017,3.218c-0.01,0.832-0.043,1.664-0.09,2.494c-0.049,0.83-0.145,1.656-0.344,2.467
	c-0.221,0.9-0.623,1.697-1.283,2.357c-0.33,0.33-0.744,0.516-1.18,0.662c-0.621,0.207-1.261,0.328-1.906,0.42
	c-1.66,0.234-3.332,0.305-5.006,0.33c-1.305,0.02-2.611,0.029-3.916,0.043C13.784,20.125,13.784,20.115,13.784,20.107
	 M10.188,10.049c0,1.512,0,3.023,0,4.537c0,0.389,0.142,0.471,0.474,0.277c0.905-0.523,1.809-1.049,2.715-1.572
	c1.44-0.832,2.881-1.662,4.322-2.492c0.3-0.174,0.601-0.346,0.899-0.52c0.199-0.113,0.206-0.291,0.017-0.423
	c-0.024-0.017-0.052-0.032-0.077-0.047c-0.687-0.397-1.373-0.793-2.059-1.189c-0.917-0.53-1.834-1.061-2.751-1.59
	c-1.039-0.6-2.078-1.196-3.117-1.797c-0.264-0.151-0.418-0.065-0.423,0.24c0,0.035,0,0.069,0,0.104V10.049z"/>
</svg>
